<svg width="21" height="21" viewBox="0 0 21 21" fill="none" xmlns="http://www.w3.org/2000/svg">
<path d="M15.2687 19.9062C14.28 19.9062 13.2387 19.67 12.1625 19.215C11.1125 18.7687 10.0538 18.1562 9.02125 17.4125C7.9975 16.66 7.00875 15.82 6.0725 14.9013C5.145 13.965 4.305 12.9762 3.56125 11.9613C2.80875 10.9113 2.205 9.86125 1.77625 8.84625C1.32125 7.76125 1.09375 6.71125 1.09375 5.7225C1.09375 5.04 1.21625 4.3925 1.4525 3.78875C1.6975 3.1675 2.09125 2.59 2.625 2.09125C3.29875 1.42625 4.06875 1.09375 4.89125 1.09375C5.2325 1.09375 5.5825 1.1725 5.88 1.3125C6.22125 1.47 6.51 1.70625 6.72 2.02125L8.75 4.8825C8.93375 5.13625 9.07375 5.38125 9.17 5.62625C9.28375 5.88875 9.345 6.15125 9.345 6.405C9.345 6.7375 9.24875 7.06125 9.065 7.3675C8.93375 7.60375 8.7325 7.8575 8.47875 8.11125L7.88375 8.7325C7.8925 8.75875 7.90125 8.77625 7.91 8.79375C8.015 8.9775 8.225 9.2925 8.6275 9.765C9.05625 10.255 9.45875 10.7013 9.86125 11.1125C10.3775 11.62 10.8062 12.0225 11.2087 12.355C11.7075 12.775 12.0312 12.985 12.2237 13.0813L12.2062 13.125L12.845 12.495C13.1162 12.2238 13.3787 12.0225 13.6325 11.8913C14.1137 11.5938 14.7262 11.5412 15.3387 11.795C15.5662 11.8912 15.8112 12.0225 16.0737 12.2063L18.9787 14.2712C19.3025 14.49 19.5387 14.77 19.6787 15.1025C19.81 15.435 19.8712 15.7413 19.8712 16.0475C19.8712 16.4675 19.775 16.8875 19.5912 17.2812C19.4075 17.675 19.18 18.0163 18.8912 18.3313C18.3925 18.8825 17.85 19.2762 17.22 19.53C16.6162 19.775 15.96 19.9062 15.2687 19.9062ZM4.89125 2.40625C4.41 2.40625 3.96375 2.61625 3.535 3.03625C3.1325 3.4125 2.8525 3.82375 2.6775 4.27C2.49375 4.725 2.40625 5.20625 2.40625 5.7225C2.40625 6.53625 2.59875 7.42 2.98375 8.33C3.3775 9.2575 3.92875 10.22 4.62875 11.1825C5.32875 12.145 6.125 13.0813 7 13.965C7.875 14.8313 8.82 15.6363 9.79125 16.345C10.7362 17.0363 11.7075 17.5963 12.67 17.9987C14.1662 18.6375 15.5662 18.7862 16.7212 18.305C17.1675 18.1213 17.5612 17.8412 17.92 17.4388C18.1212 17.22 18.2787 16.9838 18.41 16.7038C18.515 16.485 18.5675 16.2575 18.5675 16.03C18.5675 15.89 18.5413 15.75 18.4712 15.5925C18.445 15.54 18.3925 15.4438 18.2262 15.33L15.3212 13.265C15.1462 13.1425 14.9887 13.055 14.84 12.9938C14.6475 12.915 14.5687 12.8363 14.2712 13.02C14.0962 13.1075 13.9387 13.2387 13.7637 13.4137L13.0987 14.07C12.7575 14.4025 12.2325 14.4812 11.83 14.3325L11.5937 14.2275C11.235 14.035 10.815 13.7375 10.3512 13.3438C9.93125 12.985 9.47625 12.565 8.925 12.0225C8.49625 11.585 8.0675 11.1213 7.62125 10.605C7.21 10.1237 6.9125 9.7125 6.72875 9.37125L6.62375 9.10875C6.57125 8.9075 6.55375 8.79375 6.55375 8.67125C6.55375 8.35625 6.6675 8.07625 6.88625 7.8575L7.5425 7.175C7.7175 7 7.84875 6.83375 7.93625 6.685C8.00625 6.57125 8.0325 6.475 8.0325 6.3875C8.0325 6.3175 8.00625 6.2125 7.9625 6.1075C7.90125 5.9675 7.805 5.81 7.6825 5.64375L5.6525 2.77375C5.565 2.65125 5.46 2.56375 5.32875 2.5025C5.18875 2.44125 5.04 2.40625 4.89125 2.40625ZM12.2062 13.1337L12.0662 13.7287L12.3025 13.1163C12.2587 13.1075 12.2237 13.1163 12.2062 13.1337Z" fill="#1A8FED"/>
<path d="M16.1875 8.53125C15.8287 8.53125 15.5312 8.23375 15.5312 7.875C15.5312 7.56 15.2163 6.90375 14.6913 6.34375C14.175 5.7925 13.6063 5.46875 13.125 5.46875C12.7663 5.46875 12.4688 5.17125 12.4688 4.8125C12.4688 4.45375 12.7663 4.15625 13.125 4.15625C13.9737 4.15625 14.8662 4.61125 15.645 5.4425C16.3712 6.22125 16.8438 7.175 16.8438 7.875C16.8438 8.23375 16.5462 8.53125 16.1875 8.53125Z" fill="#1A8FED"/>
<path d="M19.25 8.53125C18.8913 8.53125 18.5938 8.23375 18.5938 7.875C18.5938 4.85625 16.1437 2.40625 13.125 2.40625C12.7663 2.40625 12.4688 2.10875 12.4688 1.75C12.4688 1.39125 12.7663 1.09375 13.125 1.09375C16.8612 1.09375 19.9062 4.13875 19.9062 7.875C19.9062 8.23375 19.6087 8.53125 19.25 8.53125Z" fill="#1A8FED"/>
</svg>
